<svg xmlns="http://www.w3.org/2000/svg" width="1120" height="829.801" viewBox="0 0 1120 829.801">
    <rect width="100%" height="100%" fill="black" />
    <g>
        <!-- Realistic Developer -->
        <g id="developer" transform="translate(150, 150)">
            <circle cx="60" cy="30" r="20" fill="#ffcc99" /> <!-- Head -->
            <rect x="40" y="50" width="40" height="60" fill="#8b4513" /> <!-- Body -->
            <rect x="30" y="110" width="20" height="60" fill="#2f4f4f" /> <!-- Left Leg -->
            <rect x="70" y="110" width="20" height="60" fill="#2f4f4f" /> <!-- Right Leg -->
            <circle cx="52" cy="24" r="2" fill="#000" /> <!-- Left Eye -->
            <circle cx="68" cy="24" r="2" fill="#000" /> <!-- Right Eye -->
            <path d="M52,32 Q60,40 68,32" fill="none" stroke="#000" stroke-width="2" /> <!-- Smile -->
            <rect x="30" y="50" width="10" height="50" fill="#8b4513" transform="rotate(-30, 30, 50)" />
            <!-- Left Arm -->
            <rect x="80" y="50" width="10" height="50" fill="#8b4513" transform="rotate(30, 80, 50)" />
            <!-- Right Arm -->
        </g>

        <!-- Laptop -->
        <g id="laptop" transform="translate(200, 300)">
            <rect x="0" y="0" width="150" height="100" fill="#3f3d56" />
            <rect x="0" y="0" width="150" height="70" fill="#ffffff" />
            <line x1="0" y1="70" x2="150" y2="70" stroke="#3f3d56" stroke-width="2" />
        </g>

        <!-- AI Brain Logo -->
        <g id="ai-brain" transform="translate(370, 280)">
            <path d="M40,60 Q20,20 40,0 Q60,20 40,60 M40,0 Q20,40 60,40 Q40,60 40,40" fill="none" stroke="#f2f2f2"
                stroke-width="4" />
            <circle cx="40" cy="40" r="4" fill="#f2f2f2" />
            <circle cx="30" cy="20" r="2" fill="#f2f2f2" />
            <circle cx="50" cy="20" r="2" fill="#f2f2f2" />
            <circle cx="20" cy="40" r="2" fill="#f2f2f2" />
            <circle cx="60" cy="40" r="2" fill="#f2f2f2" />
            <circle cx="30" cy="60" r="2" fill="#f2f2f2" />
            <circle cx="50" cy="60" r="2" fill="#f2f2f2" />
        </g>

        <!-- Background Ellipse -->
        <ellipse cx="600" cy="750" rx="300" ry="50" fill="#3f3d56" />
    </g>
</svg>